<svg id="IQB-Logo" xmlns="http://www.w3.org/2000/svg" width="3508" height="1486" viewBox="0 0 3508 1486">
  <metadata><?xpacket begin="﻿" id="W5M0MpCehiHzreSzNTczkc9d"?>
<x:xmpmeta xmlns:x="adobe:ns:meta/" x:xmptk="Adobe XMP Core 5.6-c138 79.159824, 2016/09/14-01:09:01        ">
   <rdf:RDF xmlns:rdf="http://www.w3.org/1999/02/22-rdf-syntax-ns#">
      <rdf:Description rdf:about=""/>
   </rdf:RDF>
</x:xmpmeta>
                                                                                                    
                                                                                                    
                                                                                                    
                                                                                                    
                                                                                                    
                                                                                                    
                                                                                                    
                                                                                                    
                                                                                                    
                                                                                                    
                                                                                                    
                                                                                                    
                                                                                                    
                                                                                                    
                                                                                                    
                                                                                                    
                                                                                                    
                                                                                                    
                                                                                                    
                                                                                                    
                           
<?xpacket end="w"?></metadata>
<defs>
    <style>
      .cls-1, .cls-2 {
        fill-rule: evenodd;
      }

      .cls-2 {
        fill: #821123;
      }
    </style>
  </defs>
  <path id="Text" class="cls-1" d="M7.716,1132.69H32.669V957.257H7.716V1132.69Zm140.041,0h22.917v-96.5a39.316,39.316,0,0,0-3.048-16.04,28.572,28.572,0,0,0-11.685-13.11,34.367,34.367,0,0,0-18.281-4.97,48.9,48.9,0,0,0-11.936,1.53,43.544,43.544,0,0,0-11.681,4.84,51.784,51.784,0,0,0-7.491,5.09q-3.426,2.805-9.016,7.38a48.6,48.6,0,0,0-1.015-10.44,39.774,39.774,0,0,0-3.3-9.16l-22.1,6.11q1.271,3.57,2.164,6.49a59.138,59.138,0,0,1,1.528,6.37,63.7,63.7,0,0,1,.891,7.64q0.251,4.2.255,9.8v94.97H98.869v-94.46a66.707,66.707,0,0,1,15.739-11.59q8.832-4.71,16-4.71,9.214,0,13.053,5.09a18.208,18.208,0,0,1,3.2,7.01,63,63,0,0,1,.9,12.6v86.06ZM291.494,1071q-7.77-9.315-25.335-13.41l-16.551-3.83q-10.186-2.28-14.131-6.32t-3.947-10.88q0-8.58,5.984-13.77t16.168-5.19a48.057,48.057,0,0,1,15.023,2.42,133.817,133.817,0,0,1,16.3,6.75l7.894-16.55a78.99,78.99,0,0,0-18.206-7.51,80.4,80.4,0,0,0-22.025-2.93,57.049,57.049,0,0,0-18.842,2.93,44.717,44.717,0,0,0-14.514,8.15,35.4,35.4,0,0,0-9.421,12.6,38.764,38.764,0,0,0-3.31,16.04q0,29.28,31.064,35.39l15.532,3.06q11.459,2.025,16.424,6.96t4.965,13.03q0,9.36-6.493,14.93t-17.187,5.56a62.286,62.286,0,0,1-21.262-3.81,134.973,134.973,0,0,1-19.733-8.92l-8.4,16.87a101.806,101.806,0,0,0,23.68,10.2,87.178,87.178,0,0,0,23.935,3.49,64.411,64.411,0,0,0,20.243-3.06,46.039,46.039,0,0,0,15.914-8.82,40.992,40.992,0,0,0,10.312-13.54,40.349,40.349,0,0,0,3.692-17.49A33.814,33.814,0,0,0,291.494,1071Zm87.721-49.32,6.366-16.55H354.516q0-4.845.128-10.188t0.509-10.44q0.382-5.091.764-9.548t0.891-8.021l-24.189,5.6a150.382,150.382,0,0,0-1.273,16.3q-0.258,8.916-.255,16.3H315.813v16.55h15.278v82.24a66.662,66.662,0,0,0,.764,11.2,27.765,27.765,0,0,0,2.037,7.01,15.5,15.5,0,0,0,2.928,4.33c1.1,1.1,2.331,2.25,3.692,3.43q3.055,2.8,9.167,4.59a44.624,44.624,0,0,0,12.476,1.78,51.028,51.028,0,0,0,23.171-5.35l-2.8-14.26a27.456,27.456,0,0,1-11.967,2.55q-9.679,0-13.113-4.33t-3.438-16.3v-76.89h25.208Zm33.1,111.01H436.5V1002.07l-24.19,3.82v126.8Zm24.063-179a16.392,16.392,0,0,0-11.841-4.837,15.744,15.744,0,0,0-11.712,4.965,17.388,17.388,0,0,0-.128,23.935,15.343,15.343,0,0,0,11.586,4.965,16.467,16.467,0,0,0,12.1-4.965,16.167,16.167,0,0,0,4.965-11.841A16.35,16.35,0,0,0,436.375,953.692Zm91.537,67.988,6.366-16.55H503.213q0-4.845.128-10.188t0.509-10.44q0.382-5.091.764-9.548t0.891-8.021l-24.189,5.6a150.382,150.382,0,0,0-1.273,16.3q-0.258,8.916-.255,16.3H464.51v16.55h15.278v82.24a66.662,66.662,0,0,0,.764,11.2,27.765,27.765,0,0,0,2.037,7.01,15.5,15.5,0,0,0,2.928,4.33c1.1,1.1,2.331,2.25,3.692,3.43q3.055,2.8,9.167,4.59a44.624,44.624,0,0,0,12.476,1.78,51.028,51.028,0,0,0,23.171-5.35l-2.8-14.26a27.456,27.456,0,0,1-11.967,2.55q-9.679,0-13.113-4.33t-3.438-16.3v-76.89h25.208ZM644.8,1137.02l16.022-12.73q-7.9-6.36-7.893-26.48v-95.99l-22.917,4.57v91.46a37.667,37.667,0,0,1-12.285,14.23q-8.189,5.85-16.889,5.85a21.251,21.251,0,0,1-8.319-1.66,22.709,22.709,0,0,1-6.525-3.93,15.738,15.738,0,0,1-4.738-8.01q-1.152-4.695-1.15-14.35v-88.67l-22.917,4.58v90.65a105.069,105.069,0,0,0,.633,12.22,29.4,29.4,0,0,0,15.492,23.17q9.012,5.085,21.206,5.09,23.358,0,38.345-18.33a37.023,37.023,0,0,0,4.444,10.69,30.358,30.358,0,0,0,7.491,7.64h0Zm99.792-115.34,6.365-16.55H719.9q0-4.845.127-10.188t0.509-10.44q0.382-5.091.764-9.548t0.891-8.021L698,972.535a150.635,150.635,0,0,0-1.273,16.3q-0.257,8.916-.255,16.3H681.192v16.55h15.277v82.24a66.662,66.662,0,0,0,.764,11.2,27.848,27.848,0,0,0,2.037,7.01,15.519,15.519,0,0,0,2.928,4.33c1.1,1.1,2.332,2.25,3.693,3.43q3.056,2.8,9.166,4.59a44.631,44.631,0,0,0,12.477,1.78,51.031,51.031,0,0,0,23.171-5.35l-2.8-14.26a27.461,27.461,0,0,1-11.968,2.55q-9.68,0-13.113-4.33t-3.437-16.3v-76.89h25.208Zm160.919,111.01,8.148-16.55H846.949l63.911-93.19v-17.82H823.524v17.06H885.4l-66.967,93.95v16.55h87.082Zm123.767,4.33,16.02-12.73q-7.89-6.36-7.89-26.48v-95.99l-22.92,4.57v91.46a37.644,37.644,0,0,1-12.28,14.23q-8.192,5.85-16.892,5.85a21.258,21.258,0,0,1-8.319-1.66,22.709,22.709,0,0,1-6.525-3.93,15.745,15.745,0,0,1-4.738-8.01q-1.152-4.695-1.15-14.35v-88.67l-22.916,4.58v90.65a105.069,105.069,0,0,0,.633,12.22,29.4,29.4,0,0,0,15.492,23.17q9.011,5.085,21.205,5.09,23.358,0,38.35-18.33a36.86,36.86,0,0,0,4.44,10.69,30.455,30.455,0,0,0,7.49,7.64h0Zm108.19-111.27,8.15-23.42a24.747,24.747,0,0,0-7.89-1.28q-19.605,0-34.63,22.16v-2.3a47.868,47.868,0,0,0-1.27-10.44,41.24,41.24,0,0,0-3.06-9.16l-22.66,5.85a68.967,68.967,0,0,1,3.56,12.99,111.307,111.307,0,0,1,1.28,18.84v93.7h23.42v-82.24a23.757,23.757,0,0,1,2.17-10.06,28.215,28.215,0,0,1,5.73-8.27,26.406,26.406,0,0,1,18.58-7.64,13.457,13.457,0,0,1,3.44.38c0.93,0.25,2,.55,3.18.89h0Zm234.25,136.19,6.88-17.53a26.893,26.893,0,0,1-4.71.76c-1.95.17-4.04,0.26-6.24,0.26a33.782,33.782,0,0,1-13.1-2.39,85.764,85.764,0,0,1-10.04-4.9q-4.32-2.505-10.17-5.9a66.633,66.633,0,0,0-11.69-5.4,56.3,56.3,0,0,0,6.73-4.84c1.78-1.53,3.6-3.22,5.47-5.09a80.738,80.738,0,0,0,18.55-29.28q6.36-17.07,6.36-41.76,0-20.625-4.32-36.41a91.983,91.983,0,0,0-12.71-28.013,65.557,65.557,0,0,0-21.74-19.479q-13.59-7.764-33.42-7.766-20.085,0-34.82,8.657-17.535,10.186-26.69,31.192t-9.15,50.029q0,21.645,4.83,38.71a74.768,74.768,0,0,0,15.51,29.28,64.325,64.325,0,0,0,20.71,16.93q12.075,6.24,29.61,6.24a88.525,88.525,0,0,1,20.72,6.87,170.473,170.473,0,0,1,16.14,9.43q2.79,1.77,6.61,4.07a71.326,71.326,0,0,0,8.13,4.2,79.436,79.436,0,0,0,8.89,3.31,30.47,30.47,0,0,0,8.9,1.4,42.65,42.65,0,0,0,9.93-.9,20.152,20.152,0,0,0,4.83-1.68h0Zm-42.77-81.44q-2.805,12.465-8.66,20.62-10.695,15.54-31.06,15.53a43.083,43.083,0,0,1-18.08-3.82,36.954,36.954,0,0,1-14.01-10.95q-5.85-7.635-9.42-23.17t-3.56-37.17a162.51,162.51,0,0,1,2.16-28.65,69.537,69.537,0,0,1,7-20.749,34.852,34.852,0,0,1,13.75-13.623,40.978,40.978,0,0,1,20.63-5.219,41.877,41.877,0,0,1,14,2.164,37.777,37.777,0,0,1,10.57,5.6,33.513,33.513,0,0,1,7.38,7.766,53.583,53.583,0,0,1,4.71,8.4,97.576,97.576,0,0,1,5.48,21.137,197.432,197.432,0,0,1,1.91,29.79Q1331.75,1068.02,1328.95,1080.5ZM1482,1137.02l16.02-12.73q-7.9-6.36-7.9-26.48v-95.99l-22.91,4.57v91.46a37.672,37.672,0,0,1-12.29,14.23q-8.19,5.85-16.89,5.85a21.306,21.306,0,0,1-8.32-1.66,22.72,22.72,0,0,1-6.52-3.93,15.769,15.769,0,0,1-4.74-8.01q-1.155-4.695-1.15-14.35v-88.67l-22.91,4.58v90.65a105.564,105.564,0,0,0,.63,12.22,29.367,29.367,0,0,0,15.49,23.17q9.015,5.085,21.21,5.09,23.355,0,38.34-18.33a37.421,37.421,0,0,0,4.44,10.69,30.336,30.336,0,0,0,7.5,7.64h0Zm137.22,1.02,11.96-15.79a20.472,20.472,0,0,1-5.85-4.96,18.558,18.558,0,0,1-3.06-6.24,37.555,37.555,0,0,1-1.27-8.27q-0.255-4.71-.25-11.34c0-4.58.03-9.2,0.12-13.87s0.21-9.08.38-13.24,0.3-7.98.39-11.46,0.12-6.41.12-8.79a135.642,135.642,0,0,0-.51-13.75,35.715,35.715,0,0,0-2.04-8.65,26.72,26.72,0,0,0-13.26-15.28q-9.69-5.085-23.72-5.09a81.832,81.832,0,0,0-16.97,1.65,97.3,97.3,0,0,0-14.41,4.2,108,108,0,0,0-12.11,5.48q-5.475,2.925-10.06,5.47l10.69,16.81a84.917,84.917,0,0,1,18.51-10.19,54.819,54.819,0,0,1,20.8-4.33,26.149,26.149,0,0,1,10.6,1.79,13.165,13.165,0,0,1,5.99,5.09,20.1,20.1,0,0,1,2.68,8.02,76.332,76.332,0,0,1,.64,10.31v8.4a13.75,13.75,0,0,0-2.54-.25h-6.37q-31.32,0-48.12,11.46-16.815,11.46-16.81,33.86,0,18.345,11.08,27.88,11.07,9.555,30.17,9.55a46.274,46.274,0,0,0,14.51-2.03,48.705,48.705,0,0,0,10.57-4.84,37.192,37.192,0,0,0,7.13-5.6q2.67-2.8,3.95-4.33,4.575,13.5,17.06,18.33h0Zm-21.14-67.98-0.76,32.59a34.572,34.572,0,0,1-11.52,12.22,27.972,27.972,0,0,1-15.36,4.58q-9.735,0-14.98-5.73t-5.25-16.42a28.758,28.758,0,0,1,1.54-10.31,30.749,30.749,0,0,1,5.12-8.28q3.84-4.32,12.03-6.74t21.51-2.42c1.02,0,2.09.04,3.2,0.12s2.6,0.22,4.47.39h0Zm105.93,62.38-4.08-14.51c-3.23.85-5.85,0.25-7.89-1.79a8.81,8.81,0,0,1-2.68-5.22q-0.63-3.435-.63-13.62V982.465q0-12.222-.26-21.134a63.386,63.386,0,0,0-2.06-15.277l-24.67,5.092a123.94,123.94,0,0,1,2.16,15.278q0.63,7.895.64,21.388v115.6q0,9.42,1.03,13.75a24.453,24.453,0,0,0,3.86,8.4,22.033,22.033,0,0,0,8.36,7.39,26.819,26.819,0,0,0,11.7,2.29,38.111,38.111,0,0,0,14.52-2.8h0Zm27.75,0.25h24.19V1002.07l-24.19,3.82v126.8Zm24.06-179a16.4,16.4,0,0,0-11.84-4.837,15.741,15.741,0,0,0-11.71,4.965,17.385,17.385,0,0,0-.13,23.935,15.343,15.343,0,0,0,11.59,4.965,16.454,16.454,0,0,0,12.09-4.965,16.162,16.162,0,0,0,4.96-11.841A16.346,16.346,0,0,0,1755.82,953.692Zm91.54,67.988,6.36-16.55h-31.06q0-4.845.13-10.188t0.51-10.44q0.375-5.091.76-9.548t0.89-8.021l-24.19,5.6a148.918,148.918,0,0,0-1.27,16.3q-0.255,8.916-.26,16.3h-15.27v16.55h15.27v82.24a66.468,66.468,0,0,0,.77,11.2,27.913,27.913,0,0,0,2.03,7.01,15.7,15.7,0,0,0,2.93,4.33c1.1,1.1,2.33,2.25,3.69,3.43q3.06,2.8,9.17,4.59a44.6,44.6,0,0,0,12.48,1.78,51.041,51.041,0,0,0,23.17-5.35l-2.8-14.26a27.491,27.491,0,0,1-11.97,2.55q-9.675,0-13.11-4.33t-3.44-16.3v-76.89h25.21Zm118.65,116.36,11.97-15.79a20.389,20.389,0,0,1-5.86-4.96,18.558,18.558,0,0,1-3.06-6.24,37.555,37.555,0,0,1-1.27-8.27q-0.255-4.71-.25-11.34,0-6.87.09-13.87t0.29-13.24q0.195-6.24.28-11.46,0.1-5.22.1-8.79,0-9.165-.5-13.75a36.169,36.169,0,0,0-2.02-8.65,26.61,26.61,0,0,0-13.11-15.28q-9.585-5.085-23.58-5.09a81.438,81.438,0,0,0-16.93,1.65,97.027,97.027,0,0,0-14.39,4.2,107.815,107.815,0,0,0-12.1,5.48q-5.475,2.925-10.05,5.47l10.69,16.81a84.741,84.741,0,0,1,18.46-10.19,54.577,54.577,0,0,1,20.75-4.33,25.993,25.993,0,0,1,10.57,1.79,13.138,13.138,0,0,1,5.98,5.09,20.42,20.42,0,0,1,2.68,8.02,78.083,78.083,0,0,1,.63,10.31v8.4a13.666,13.666,0,0,0-2.54-.25h-6.37q-31.32,0-48.12,11.46t-16.81,33.86q0,18.345,11.08,27.88,11.07,9.555,30.17,9.55a46.384,46.384,0,0,0,14.52-2.03,48.836,48.836,0,0,0,10.56-4.84,37.192,37.192,0,0,0,7.13-5.6q2.67-2.8,3.95-4.33,4.575,13.5,17.06,18.33h0Zm-21.14-67.98-0.76,32.59a34.572,34.572,0,0,1-11.52,12.22,27.972,27.972,0,0,1-15.36,4.58q-9.735,0-14.98-5.73t-5.24-16.42a28.78,28.78,0,0,1,1.53-10.31,30.749,30.749,0,0,1,5.12-8.28q3.84-4.32,12.03-6.74t21.51-2.42c1.02,0,2.09.04,3.2,0.12s2.6,0.22,4.47.39h0Zm-37.81-108.22a14.237,14.237,0,0,0-10.56-4.583,13.826,13.826,0,0,0-10.44,4.583,15.7,15.7,0,0,0-4.33,11.2,16.134,16.134,0,0,0,4.33,11.331,13.647,13.647,0,0,0,10.44,4.71,13.94,13.94,0,0,0,10.69-4.71,16.178,16.178,0,0,0,4.33-11.331A15.475,15.475,0,0,0,1907.06,961.84Zm52.96,0a13.959,13.959,0,0,0-10.31-4.583,14.113,14.113,0,0,0-10.69,4.583,15.7,15.7,0,0,0-4.33,11.2,16.134,16.134,0,0,0,4.33,11.331,13.925,13.925,0,0,0,10.69,4.71,13.662,13.662,0,0,0,10.44-4.71,16.134,16.134,0,0,0,4.33-11.331A15.475,15.475,0,0,0,1960.02,961.84Zm99.43,59.84,6.37-16.55h-31.06q0-4.845.12-10.188t0.51-10.44c0.26-3.394.51-6.576,0.77-9.548s0.54-5.642.89-8.021l-24.19,5.6a151.3,151.3,0,0,0-1.28,16.3q-0.255,8.916-.25,16.3h-15.28v16.55h15.28v82.24a66.616,66.616,0,0,0,.76,11.2,27.88,27.88,0,0,0,2.04,7.01,15.48,15.48,0,0,0,2.93,4.33c1.1,1.1,2.33,2.25,3.69,3.43q3.06,2.8,9.17,4.59a44.587,44.587,0,0,0,12.47,1.78,51.053,51.053,0,0,0,23.18-5.35l-2.81-14.26a27.416,27.416,0,0,1-11.96,2.55c-6.46,0-10.82-1.44-13.12-4.33s-3.43-8.32-3.43-16.3v-76.89h25.2ZM2172.38,1071q-7.77-9.315-25.34-13.41l-16.55-3.83q-10.185-2.28-14.13-6.32t-3.95-10.88q0-8.58,5.99-13.77,5.97-5.19,16.16-5.19a48.091,48.091,0,0,1,15.03,2.42,133.634,133.634,0,0,1,16.29,6.75l7.9-16.55a79.042,79.042,0,0,0-18.21-7.51,80.364,80.364,0,0,0-22.02-2.93,57.1,57.1,0,0,0-18.85,2.93,44.676,44.676,0,0,0-14.51,8.15,35.4,35.4,0,0,0-9.42,12.6,38.733,38.733,0,0,0-3.31,16.04q0,29.28,31.06,35.39l15.54,3.06q11.445,2.025,16.42,6.96t4.96,13.03q0,9.36-6.49,14.93t-17.19,5.56a62.266,62.266,0,0,1-21.26-3.81,135.175,135.175,0,0,1-19.73-8.92l-8.4,16.87a101.788,101.788,0,0,0,23.68,10.2,87.1,87.1,0,0,0,23.93,3.49,64.338,64.338,0,0,0,20.24-3.06,46.049,46.049,0,0,0,15.92-8.82,40.986,40.986,0,0,0,10.31-13.54,40.334,40.334,0,0,0,3.69-17.49A33.841,33.841,0,0,0,2172.38,1071Zm59.45,2.88h77.41v-4.08a186.719,186.719,0,0,0-.89-19.35,85.7,85.7,0,0,0-2.8-14.9,51.073,51.073,0,0,0-4.82-11.45,52.627,52.627,0,0,0-6.99-9.3q-13.455-13.74-34.54-13.75-23.625,0-38.35,17.57a60.348,60.348,0,0,0-11.69,21.26q-3.555,11.595-3.56,28.14a93.536,93.536,0,0,0,3.95,28.26,60.024,60.024,0,0,0,11.33,21.14,49.959,49.959,0,0,0,17.95,13.36,57.894,57.894,0,0,0,23.81,4.71q25.455,0,44.05-16.06l-8.91-13.98q-13.755,12.225-31.32,12.22a37.206,37.206,0,0,1-16.68-3.71,32.162,32.162,0,0,1-12.6-11.4q-5.355-8.7-5.35-25.61v-3.07Zm53.22-17.32h-52.71q0-17.565,6.46-27.63t20.15-10.05a21.554,21.554,0,0,1,10.64,2.54,25.447,25.447,0,0,1,7.6,6.37q7.86,9.675,7.86,28.77h0Zm129.35,76.13h22.91v-96.5a39.3,39.3,0,0,0-3.05-16.04,28.55,28.55,0,0,0-11.68-13.11,34.368,34.368,0,0,0-18.28-4.97,48.891,48.891,0,0,0-11.94,1.53,43.7,43.7,0,0,0-11.68,4.84,51.554,51.554,0,0,0-7.49,5.09q-3.42,2.805-9.01,7.38a48.355,48.355,0,0,0-1.02-10.44,40.113,40.113,0,0,0-3.3-9.16l-22.11,6.11q1.275,3.57,2.17,6.49a60.857,60.857,0,0,1,1.53,6.37,63.84,63.84,0,0,1,.89,7.64c0.16,2.8.25,6.07,0.25,9.8v94.97h22.92v-94.46a66.741,66.741,0,0,1,15.74-11.59q8.835-4.71,16-4.71,9.21,0,13.05,5.09a18.2,18.2,0,0,1,3.2,7.01,62.681,62.681,0,0,1,.9,12.6v86.06Zm114.58-111.01,6.36-16.55h-31.06q0-4.845.13-10.188t0.5-10.44c0.26-3.394.51-6.576,0.77-9.548s0.55-5.642.89-8.021l-24.19,5.6a148.918,148.918,0,0,0-1.27,16.3q-0.255,8.916-.26,16.3h-15.27v16.55h15.27v82.24a66.468,66.468,0,0,0,.77,11.2,27.913,27.913,0,0,0,2.03,7.01,15.7,15.7,0,0,0,2.93,4.33c1.1,1.1,2.33,2.25,3.69,3.43q3.06,2.8,9.17,4.59a44.6,44.6,0,0,0,12.48,1.78,51.041,51.041,0,0,0,23.17-5.35l-2.8-14.26a27.491,27.491,0,0,1-11.97,2.55q-9.675,0-13.11-4.33-3.45-4.32-3.44-16.3v-76.89h25.21Zm148.69,112.03,35.14-128.58h-24.19l-15.78,69.76c-0.51,2.04-1.07,4.8-1.66,8.28s-1.23,6.83-1.91,10.06-1.27,6.02-1.78,8.4l-0.51,3.56h-1.02l-0.76-2.8q-0.51-3.045-1.53-7.64-1.02-4.575-2.29-10.05t-2.55-10.57l-17.82-69h-24.19l-19.35,71.04a87.372,87.372,0,0,0-2.29,9.16q-1.02,5.1-1.79,9.42-0.765,4.335-1.27,7.39l-0.51,3.05h-0.76l-0.77-3.05c-0.34-2.04-.85-4.62-1.52-7.77s-1.41-6.53-2.17-10.18-1.49-7.09-2.16-10.31l-16.3-71.55-23.68,3.82,34.88,127.56h22.41l19.1-71.04c0.51-1.69,1.14-4.16,1.91-7.38s1.53-6.41,2.29-9.55,1.4-5.81,1.91-8.02l0.76-3.57h0.77l0.76,3.57c0.68,2.21,1.44,4.92,2.29,8.15s1.74,6.53,2.68,9.93,1.65,6.2,2.16,8.4l18.59,69.51h22.91Zm58.31-1.02h24.19V1002.07l-24.19,3.82v126.8Zm24.06-179a16.379,16.379,0,0,0-11.84-4.837,15.741,15.741,0,0,0-11.71,4.965,17.385,17.385,0,0,0-.13,23.935,15.358,15.358,0,0,0,11.59,4.965,16.454,16.454,0,0,0,12.09-4.965,16.133,16.133,0,0,0,4.97-11.841A16.317,16.317,0,0,0,2760.04,953.692Zm128.21,165-11.46-14.51q-11.715,13.23-26.48,13.24-11.2,0-18.33-7.64a33.611,33.611,0,0,1-7.64-14.13q-2.55-8.79-2.55-22.54,0-25.455,6.37-39.08t22.15-13.63a27.518,27.518,0,0,1,11.08,2.17,45.954,45.954,0,0,1,11.33,7.76l12.22-16.04a55.381,55.381,0,0,0-15.66-10.05,48.959,48.959,0,0,0-18.97-3.44q-18.585,0-33.1,12.98a64.1,64.1,0,0,0-15.28,21.39q-6.1,13.245-6.11,34.89a103.214,103.214,0,0,0,2.93,25.84,60.463,60.463,0,0,0,9.29,20.24q13.245,19.095,41,19.1,12.21,0,21.13-3.82t18.08-12.73h0Zm24.19,14h23.42V973.808a131.614,131.614,0,0,0-.89-15.4,106.52,106.52,0,0,0-2.16-12.6l-23.68,5.6a95.407,95.407,0,0,1,2.42,12.476,132.075,132.075,0,0,1,.89,16.551V1132.69Zm78.42,0h29.28l-56.78-73.58,45.58-54.24h-28.52l-42.01,55.26Zm86.57-.25-4.07-14.51q-4.845,1.275-7.9-1.79a8.747,8.747,0,0,1-2.67-5.22q-0.63-3.435-.64-13.62V982.465q0-12.222-.25-21.134a63.386,63.386,0,0,0-2.06-15.277l-24.68,5.092a125.872,125.872,0,0,1,2.17,15.278q0.63,7.895.64,21.388v115.6q0,9.42,1.02,13.75a24.641,24.641,0,0,0,3.86,8.4,21.985,21.985,0,0,0,8.37,7.39,26.789,26.789,0,0,0,11.7,2.29,38.023,38.023,0,0,0,14.51-2.8h0Zm114.09,4.58,16.02-12.73q-7.89-6.36-7.89-26.48v-95.99l-22.92,4.57v91.46a37.644,37.644,0,0,1-12.28,14.23q-8.19,5.85-16.89,5.85a21.27,21.27,0,0,1-8.32-1.66,22.583,22.583,0,0,1-6.52-3.93,15.7,15.7,0,0,1-4.74-8.01q-1.155-4.695-1.15-14.35v-88.67l-22.92,4.58v90.65a105.564,105.564,0,0,0,.63,12.22,29.428,29.428,0,0,0,15.5,23.17q9,5.085,21.2,5.09,23.355,0,38.35-18.33a36.86,36.86,0,0,0,4.44,10.69,30.455,30.455,0,0,0,7.49,7.64h0Zm120.93-4.33h22.91v-96.5a39.3,39.3,0,0,0-3.04-16.04,28.572,28.572,0,0,0-11.69-13.11,34.368,34.368,0,0,0-18.28-4.97,48.874,48.874,0,0,0-11.93,1.53,43.626,43.626,0,0,0-11.69,4.84,52.667,52.667,0,0,0-7.49,5.09q-3.42,2.805-9.01,7.38a48.355,48.355,0,0,0-1.02-10.44,39.644,39.644,0,0,0-3.3-9.16l-22.1,6.11q1.26,3.57,2.16,6.49a60.857,60.857,0,0,1,1.53,6.37,63.84,63.84,0,0,1,.89,7.64q0.255,4.2.25,9.8v94.97h22.92v-94.46a66.741,66.741,0,0,1,15.74-11.59q8.835-4.71,16-4.71,9.21,0,13.05,5.09a18.049,18.049,0,0,1,3.2,7.01,62.681,62.681,0,0,1,.9,12.6v86.06Zm180.02-117.12-11.97-14.52a47.2,47.2,0,0,1-10.05,5.48,29.988,29.988,0,0,1-10.83,1.91,35.539,35.539,0,0,1-9.16-1.28q-4.845-1.26-9.93-2.8a60.177,60.177,0,0,0-10.32-2.29,84.043,84.043,0,0,0-9.54-.51,62.016,62.016,0,0,0-19.99,3.06,44.536,44.536,0,0,0-15.41,8.65,39.473,39.473,0,0,0-9.93,13.5,42.148,42.148,0,0,0-3.56,17.57q0,13.245,7.64,22.79t22.4,13.87a86.523,86.523,0,0,0-17.95,8.79q-7.005,4.71-7,13.62a15.222,15.222,0,0,0,4.71,11.59q4.71,4.455,13.11,5.47,3.57,0.51,10.44.89c4.59,0.26,9.08.38,13.5,0.38q19.1,0,27.12,5.1t8.02,14.26q0,10.17-7.64,16.04-7.635,5.85-23.68,5.85-30.81,0-30.81-20.37a19.74,19.74,0,0,1,.76-5.47,25.286,25.286,0,0,1,1.53-4.2l-22.92,1.27a41.738,41.738,0,0,0-1.65,5.86,34.8,34.8,0,0,0-.64,7.13q0,16.035,14.52,24.82t41.5,8.79a85.415,85.415,0,0,0,21.52-2.55,49.65,49.65,0,0,0,16.93-7.76,36.35,36.35,0,0,0,15.28-30.94,35.942,35.942,0,0,0-2.68-13.88,29.323,29.323,0,0,0-8.15-11.2,39.11,39.11,0,0,0-14.25-7.39,72.782,72.782,0,0,0-21.01-2.67h-19.61q-9.165,0-9.16-6.37a6.3,6.3,0,0,1,2.03-4.2,22.634,22.634,0,0,1,5.1-3.94,65.665,65.665,0,0,1,6.49-3.31c2.29-1.02,4.46-1.87,6.49-2.55q12.48,0,21.26-3.56a40.4,40.4,0,0,0,14.26-9.3,34.828,34.828,0,0,0,7.9-12.73,42.347,42.347,0,0,0,2.41-13.88,33.115,33.115,0,0,0-2.03-11.58,44.341,44.341,0,0,0-7.13-11.84q4.575,1.275,6.36,1.65a22.145,22.145,0,0,0,4.59.39,30.8,30.8,0,0,0,21.13-7.64h0Zm-71.93,52.45q-23.295,0-23.3-23.68,0-24.45,23.04-24.45,23.31,0,23.3,23.94,0,24.2-23.04,24.19h0ZM7.716,1438.24H31.905V1307.62l-24.189,3.82v126.8Zm24.062-179a16.4,16.4,0,0,0-11.84-4.84,15.751,15.751,0,0,0-11.713,4.97A17.381,17.381,0,0,0,8.1,1283.3a15.346,15.346,0,0,0,11.585,4.97,16.469,16.469,0,0,0,12.095-4.97,16.153,16.153,0,0,0,4.965-11.84A16.352,16.352,0,0,0,31.778,1259.24Zm179.638,179h22.916v-95.23q0-17.565-8.629-26.73t-23.847-9.17q-19.789,0-38.819,20.12-4.839-10.7-13.113-15.41a34.293,34.293,0,0,0-17.187-4.71,40.852,40.852,0,0,0-18.333,4.71,62.905,62.905,0,0,0-17.569,13.37q0-11.2-4.329-17.82l-21.9,5.34q1.271,3.315,2.164,6.24a44.943,44.943,0,0,1,1.4,6.37q0.507,3.435.764,7.89t0.255,11.33v93.7H98.108v-95.95q8.193-7.92,15.492-11.36a32.645,32.645,0,0,1,13.957-3.45q8.956,0,12.417,4.47t3.457,15.18v91.11h22.916v-93.48a124.937,124.937,0,0,1,14.132-12.32,25.7,25.7,0,0,1,15.659-4.96q8.146,0,11.713,4.32t3.565,15.24v91.2Zm230.685-77.4q-9.423-11.715-29.282-16.04,16.042-4.845,23.935-14.9a37.417,37.417,0,0,0,7.893-23.81q0-23.925-23.735-36.66a43.993,43.993,0,0,0-8.041-3.57,56.862,56.862,0,0,0-9.314-2.03,105.46,105.46,0,0,0-12.763-.9q-7.4-.12-18.373-0.12H335.159v175.43h53.356q6.857,0,14.354-.63a79.017,79.017,0,0,0,13.336-2.17,49.893,49.893,0,0,0,25.28-15.53q10.036-11.46,10.037-29.79Q451.522,1372.555,442.1,1360.84Zm-20.115,40.74a29.9,29.9,0,0,1-7.13,9.67,25.878,25.878,0,0,1-9.93,5.48,38.653,38.653,0,0,1-10.949,1.65H359.348v-61.11h28.263q6.62,0,10.695.39a64.875,64.875,0,0,1,7.638,1.14q8.147,2.04,13.5,9.93a32.349,32.349,0,0,1,5.347,18.59A32.9,32.9,0,0,1,421.986,1401.58ZM416.643,1319a25.986,25.986,0,0,1-3.8,8.18,42.071,42.071,0,0,1-4.058,4.48,15.316,15.316,0,0,1-4.945,3.07,28.64,28.64,0,0,1-6.843,1.66,78.539,78.539,0,0,1-10.014.51H359.348v-53.72h23.831q6.59,0,10.647.38a32.134,32.134,0,0,1,7.1,1.41,22.545,22.545,0,0,1,12.293,9.08,27.4,27.4,0,0,1,4.691,15.99A33.856,33.856,0,0,1,416.643,1319Zm70.779,119.24h24.19V1307.62l-24.19,3.82v126.8Zm24.063-179a16.4,16.4,0,0,0-11.841-4.84,15.748,15.748,0,0,0-11.712,4.97,17.381,17.381,0,0,0-.128,23.93,15.348,15.348,0,0,0,11.586,4.97,16.471,16.471,0,0,0,12.1-4.97,16.153,16.153,0,0,0,4.965-11.84A16.352,16.352,0,0,0,511.485,1259.24Zm81.609,178.75-4.074-14.51q-4.839,1.275-7.893-1.79a8.726,8.726,0,0,1-2.674-5.22q-0.637-3.435-.636-13.62V1288.02q0-12.225-.259-21.14a63.41,63.41,0,0,0-2.057-15.28l-24.674,5.1a125.185,125.185,0,0,1,2.164,15.27q0.633,7.9.636,21.39v115.6q0,9.42,1.027,13.75a24.537,24.537,0,0,0,3.863,8.4,22,22,0,0,0,8.363,7.39,26.818,26.818,0,0,0,11.7,2.29,38.042,38.042,0,0,0,14.513-2.8h0Zm105.67,0.25h22.407q-2.04-5.85-2.8-16.55t-0.764-26.22V1254.91l-23.426-3.82v49.66q0,6.615.255,13.11t0.254,9.29a37.963,37.963,0,0,0-31.064-14.76,46,46,0,0,0-24.953,7.38q-12.986,8.4-19.861,23.81t-6.875,36.03q0,30.555,13.5,47.61t38.194,17.06q19.605,0,32.847-14c0.338,3.22.636,5.56,0.891,7a29.9,29.9,0,0,0,1.4,4.96h0Zm-4.837-98.82v66.53a30.531,30.531,0,0,1-10.058,10.28q-6.75,4.44-16.933,4.44-12.222,0-18.842-6.6a33.576,33.576,0,0,1-4.456-5.46,24.584,24.584,0,0,1-3.055-7.24,68.626,68.626,0,0,1-1.783-10.53q-0.639-6.225-.636-15.37a114.446,114.446,0,0,1,1.527-20.56,47.167,47.167,0,0,1,5.093-14.48,26.778,26.778,0,0,1,9.166-9.52,24.414,24.414,0,0,1,12.986-3.43,36,36,0,0,1,15.4,3.05,35.176,35.176,0,0,1,11.586,8.89h0Zm153.3,103.15,16.021-12.73q-7.895-6.36-7.893-26.48v-95.99l-22.916,4.57v91.46a37.678,37.678,0,0,1-12.286,14.23q-8.188,5.85-16.889,5.85a21.258,21.258,0,0,1-8.319-1.66,22.709,22.709,0,0,1-6.525-3.93,15.745,15.745,0,0,1-4.738-8.01q-1.152-4.7-1.15-14.35v-88.67l-22.916,4.58v90.65a105.308,105.308,0,0,0,.632,12.22,29.4,29.4,0,0,0,15.493,23.17q9.01,5.085,21.2,5.09,23.358,0,38.345-18.33a37.079,37.079,0,0,0,4.444,10.69,30.363,30.363,0,0,0,7.492,7.64h0Zm120.926-4.33h22.916v-96.5a39.316,39.316,0,0,0-3.047-16.04,28.572,28.572,0,0,0-11.685-13.11,34.367,34.367,0,0,0-18.281-4.97,48.9,48.9,0,0,0-11.936,1.53,43.544,43.544,0,0,0-11.681,4.84,51.784,51.784,0,0,0-7.491,5.09q-3.426,2.805-9.016,7.38a48.631,48.631,0,0,0-1.014-10.44,39.792,39.792,0,0,0-3.3-9.16l-22.105,6.11q1.27,3.57,2.164,6.49a59.16,59.16,0,0,1,1.528,6.37,63.624,63.624,0,0,1,.891,7.64q0.251,4.2.255,9.8v94.97h22.916v-94.46a66.714,66.714,0,0,1,15.739-11.59q8.832-4.71,16-4.71,9.214,0,13.053,5.09a18.208,18.208,0,0,1,3.2,7.01,63,63,0,0,1,.895,12.6v86.06Zm180.025-117.12-11.97-14.52a47.5,47.5,0,0,1-10.06,5.48,29.972,29.972,0,0,1-10.82,1.91,35.612,35.612,0,0,1-9.17-1.28q-4.83-1.26-9.93-2.8a59.884,59.884,0,0,0-10.31-2.29,84.1,84.1,0,0,0-9.55-.51,61.954,61.954,0,0,0-19.98,3.06,44.536,44.536,0,0,0-15.41,8.65,39.473,39.473,0,0,0-9.93,13.5,42.148,42.148,0,0,0-3.56,17.57q0,13.245,7.63,22.79,7.65,9.54,22.41,13.87a86.523,86.523,0,0,0-17.95,8.79q-7,4.71-7,13.62a15.222,15.222,0,0,0,4.71,11.59q4.71,4.455,13.11,5.47,3.57,0.51,10.44.89t13.5,0.38q19.1,0,27.11,5.1t8.02,14.26q0,10.17-7.63,16.04-7.65,5.85-23.68,5.85-30.825,0-30.81-20.37a19.74,19.74,0,0,1,.76-5.47,25.286,25.286,0,0,1,1.53-4.2l-22.92,1.27a41.738,41.738,0,0,0-1.65,5.86,34.8,34.8,0,0,0-.64,7.13q0,16.035,14.51,24.82t41.51,8.79a85.334,85.334,0,0,0,21.51-2.55,49.615,49.615,0,0,0,16.94-7.76,36.31,36.31,0,0,0,15.27-30.94,36.121,36.121,0,0,0-2.67-13.88,29.323,29.323,0,0,0-8.15-11.2,39.078,39.078,0,0,0-14.26-7.39,72.71,72.71,0,0,0-21-2.67h-19.61q-9.165,0-9.17-6.37a6.313,6.313,0,0,1,2.04-4.2,22.793,22.793,0,0,1,5.09-3.94,65.849,65.849,0,0,1,6.5-3.31q3.435-1.53,6.49-2.55,12.465,0,21.26-3.56a40.4,40.4,0,0,0,14.26-9.3,34.669,34.669,0,0,0,7.89-12.73,42.364,42.364,0,0,0,2.42-13.88,32.894,32.894,0,0,0-2.04-11.58,44.079,44.079,0,0,0-7.13-11.84q4.59,1.275,6.37,1.65a22.041,22.041,0,0,0,4.58.39,30.8,30.8,0,0,0,21.14-7.64h0Zm-71.93,52.45q-23.31,0-23.3-23.68,0-24.45,23.04-24.45,23.295,0,23.3,23.94,0,24.195-23.04,24.19h0Zm170.85,2.98q-7.77-9.315-25.34-13.41l-16.55-3.83q-10.185-2.28-14.13-6.32t-3.94-10.88q0-8.58,5.98-13.77t16.17-5.19a48.029,48.029,0,0,1,15.02,2.42,134.377,134.377,0,0,1,16.3,6.75l7.89-16.55a78.858,78.858,0,0,0-18.21-7.51,80.312,80.312,0,0,0-22.02-2.93,57.041,57.041,0,0,0-18.84,2.93,44.831,44.831,0,0,0-14.52,8.15,35.518,35.518,0,0,0-9.42,12.6,38.733,38.733,0,0,0-3.31,16.04q0,29.28,31.07,35.39l15.53,3.06q11.46,2.025,16.42,6.96t4.97,13.03q0,9.36-6.5,14.93-6.48,5.565-17.18,5.56a62.266,62.266,0,0,1-21.26-3.81,134.82,134.82,0,0,1-19.74-8.92l-8.4,16.87a101.788,101.788,0,0,0,23.68,10.2,87.154,87.154,0,0,0,23.93,3.49,64.447,64.447,0,0,0,20.25-3.06,46,46,0,0,0,15.91-8.82,40.986,40.986,0,0,0,10.31-13.54,40.337,40.337,0,0,0,3.7-17.49A33.8,33.8,0,0,0,1247.1,1376.55Zm156.47,62.71,35.13-128.58h-24.18l-15.79,69.76q-0.765,3.06-1.66,8.28t-1.91,10.06q-1.02,4.83-1.78,8.4l-0.51,3.56h-1.02l-0.76-2.8q-0.51-3.045-1.53-7.64-1.02-4.575-2.29-10.05t-2.55-10.57l-17.82-69h-24.19l-19.35,71.04a87.372,87.372,0,0,0-2.29,9.16c-0.68,3.4-1.28,6.54-1.78,9.42s-0.94,5.35-1.28,7.39l-0.51,3.05h-0.76l-0.76-3.05c-0.35-2.04-.86-4.62-1.53-7.77s-1.4-6.53-2.17-10.18-1.48-7.09-2.16-10.31l-16.3-71.55-23.68,3.82,34.89,127.56h22.4l19.1-71.04c0.51-1.69,1.15-4.16,1.91-7.38s1.53-6.41,2.29-9.55,1.4-5.81,1.91-8.02l0.77-3.57h0.76l0.76,3.57c0.68,2.21,1.44,4.92,2.29,8.15s1.74,6.53,2.68,9.93,1.65,6.2,2.16,8.4l18.59,69.51h22.92Zm78.17-59.83h77.4v-4.08a186.719,186.719,0,0,0-.89-19.35,84.816,84.816,0,0,0-2.79-14.9,50.623,50.623,0,0,0-4.83-11.45,52.568,52.568,0,0,0-6.98-9.3q-13.455-13.74-34.54-13.75-23.64,0-38.36,17.57a60.322,60.322,0,0,0-11.68,21.26q-3.555,11.6-3.56,28.14a93.223,93.223,0,0,0,3.95,28.26,59.864,59.864,0,0,0,11.33,21.14,49.874,49.874,0,0,0,17.95,13.36,57.861,57.861,0,0,0,23.81,4.71q25.455,0,44.05-16.06l-8.91-13.98q-13.755,12.225-31.32,12.22a37.176,37.176,0,0,1-16.68-3.71,32.256,32.256,0,0,1-12.61-11.4q-5.34-8.7-5.34-25.61v-3.07Zm53.21-17.32h-52.7q0-17.565,6.46-27.63t20.14-10.05a21.554,21.554,0,0,1,10.64,2.54,25.488,25.488,0,0,1,7.61,6.37q7.86,9.675,7.85,28.77h0Zm136.1,14.44q-7.77-9.315-25.33-13.41l-16.55-3.83q-10.185-2.28-14.14-6.32t-3.94-10.88q0-8.58,5.98-13.77t16.17-5.19a48.029,48.029,0,0,1,15.02,2.42,133.721,133.721,0,0,1,16.3,6.75l7.89-16.55a78.958,78.958,0,0,0-18.2-7.51,80.437,80.437,0,0,0-22.03-2.93,57.041,57.041,0,0,0-18.84,2.93,44.676,44.676,0,0,0-14.51,8.15,35.284,35.284,0,0,0-9.42,12.6,38.733,38.733,0,0,0-3.31,16.04q0,29.28,31.06,35.39l15.53,3.06q11.46,2.025,16.42,6.96t4.97,13.03q0,9.36-6.49,14.93t-17.19,5.56a62.266,62.266,0,0,1-21.26-3.81,134.7,134.7,0,0,1-19.73-8.92l-8.41,16.87a101.788,101.788,0,0,0,23.68,10.2,87.224,87.224,0,0,0,23.94,3.49,64.428,64.428,0,0,0,20.24-3.06,46,46,0,0,0,15.91-8.82,41.016,41.016,0,0,0,10.32-13.54,40.334,40.334,0,0,0,3.69-17.49A33.8,33.8,0,0,0,1671.05,1376.55Zm59.46,2.88h77.4v-4.08a186.719,186.719,0,0,0-.89-19.35,84.816,84.816,0,0,0-2.79-14.9,50.623,50.623,0,0,0-4.83-11.45,52.568,52.568,0,0,0-6.98-9.3q-13.455-13.74-34.54-13.75-23.64,0-38.36,17.57a60.322,60.322,0,0,0-11.68,21.26q-3.555,11.6-3.56,28.14a93.223,93.223,0,0,0,3.95,28.26,59.864,59.864,0,0,0,11.33,21.14,49.874,49.874,0,0,0,17.95,13.36,57.861,57.861,0,0,0,23.81,4.71q25.455,0,44.05-16.06l-8.92-13.98q-13.74,12.225-31.31,12.22a37.176,37.176,0,0,1-16.68-3.71,32.256,32.256,0,0,1-12.61-11.4q-5.34-8.7-5.34-25.61v-3.07Zm53.21-17.32h-52.7q0-17.565,6.46-27.63t20.14-10.05a21.554,21.554,0,0,1,10.64,2.54,25.488,25.488,0,0,1,7.61,6.37q7.86,9.675,7.85,28.77h0Zm129.35,76.13h22.92v-96.5a39.3,39.3,0,0,0-3.05-16.04,28.605,28.605,0,0,0-11.68-13.11,34.378,34.378,0,0,0-18.29-4.97,48.874,48.874,0,0,0-11.93,1.53,43.431,43.431,0,0,0-11.68,4.84,51.554,51.554,0,0,0-7.49,5.09q-3.435,2.805-9.02,7.38a49.032,49.032,0,0,0-1.01-10.44,39.685,39.685,0,0,0-3.31-9.16l-22.1,6.11q1.275,3.57,2.16,6.49a56.214,56.214,0,0,1,1.53,6.37,63.84,63.84,0,0,1,.89,7.64q0.255,4.2.26,9.8v94.97h22.91v-94.46a66.741,66.741,0,0,1,15.74-11.59q8.835-4.71,16-4.71,9.225,0,13.06,5.09a18.343,18.343,0,0,1,3.2,7.01,63.628,63.628,0,0,1,.89,12.6v86.06Z"/>
  <path id="Logo" class="cls-2" d="M361,686V45H531l60-28C671.568-7.785,792.208-5.614,866,24c177.98,71.426,281.23,347.737,159,562-30.792,53.976-70.472,80.638-115,120q83.991,21,168,42-22.5,59.994-45,120c-0.67.333-1.33,0.667-2,1-134.994-63.655-271.1-93.457-430-132-42.148-10.223-69.65-38.987-103-51H361ZM9,45H182V688H9V45Zm1342,0V686l-275-1c131.19-96.721,182.13-364.246,79-534-28.21-46.43-66.65-73.666-109-106h305ZM712,112c-44.72,10-75.6,12.713-103,38-82.045,75.713-89.55,366.726-7,449,38.849,38.719,116.8,44.775,181,28v-2c-141.035-34.133-132.651-460.445,1-498v-1C762.717,118.674,740.6,113.731,712,112Zm790,43c87.45-1.718,178.77-11.521,183,71,4.52,88.171-97.08,77.592-183,76V155Zm2,253c98.46-1.744,185.32-10.976,196,77,12.91,106.4-98.32,98.642-196,97V408Z"/>
</svg>
